<?xml version="1.0" encoding="utf-8"?>
<!-- Generator: Adobe Illustrator 19.1.0, SVG Export Plug-In . SVG Version: 6.00 Build 0)  -->
<svg version="1.1" id="Layer_1" xmlns="http://www.w3.org/2000/svg" xmlns:xlink="http://www.w3.org/1999/xlink" x="0px" y="0px"
	 viewBox="0 0 100 100" style="enable-background:new 0 0 100 100;" xml:space="preserve">
<style type="text/css">
	.st0{fill:#F1F1F2;}
	.st1{fill:#640F13;}
	.st2{fill:#FCE8D0;}
	.st3{fill:#E6E7E8;}
	.st4{fill:#DB4342;}
	.st5{fill:#FACCAA;}
	.st6{fill:#FFFFFF;}
	.st7{fill:#C83D3C;}
	.st8{fill:#98CF97;}
	.st9{fill:#83B585;}
	.st10{fill:#E86363;}
	.st11{fill:#FFDF00;}
	.st12{fill:#FFF69D;}
	.st13{fill:#FFF5CA;}
	.st14{fill:#D0AF8B;}
	.st15{fill:#BC3839;}
	.st16{fill:#E8DEB9;}
	.st17{fill:#DFC0A9;}
	.st18{fill:#640F14;}
	.st19{fill:#BADDEE;}
	.st20{fill:#9DD3ED;}
	.st21{fill:#D17663;}
	.st22{fill:#839CC1;}
	.st23{fill:#E0D682;}
	.st24{fill:#E07B25;}
	.st25{fill:#77A9C3;}
	.st26{fill:#008BB3;}
	.st27{fill:#2385A5;}
	.st28{fill:#6CADCA;}
	.st29{fill:#DBDCDD;}
	.st30{fill:#7AB17B;}
	.st31{fill:#C3996B;}
	.st32{fill:#B18C62;}
	.st33{fill:#D7B492;}
	.st34{fill:#F27575;}
	.st35{fill:#992E34;}
	.st36{fill:#D0D2D3;}
	.st37{fill:#AE3334;}
	.st38{fill:#A9865E;}
	.st39{fill:#231F20;}
	.st40{fill:#FCC010;}
	.st41{fill:#F4EDB8;}
	.st42{fill:#E29E16;}
</style>
<g>
	<path class="st1" d="M49.4,19.1c13.2,0,23.9,10.7,23.9,23.9c0,5.7-2,10.9-5.3,15c0.5,0.2,1,0.5,1.5,1c1.3,1.2,3.1,5.1,3.1,10.3
		c0,7.5-7.6,9-23,9S26.3,75.7,26.3,69c0-9.2,3.2-10.9,3.2-10.9c0.3-0.4,0.6-0.6,0.9-0.7c-3-4-4.9-9-4.9-14.4
		C25.5,29.8,36.2,19.1,49.4,19.1 M30.8,57.2C30.8,57.2,30.8,57.2,30.8,57.2C30.8,57.2,30.8,57.2,30.8,57.2
		C30.8,57.2,30.8,57.2,30.8,57.2C30.8,57.2,30.8,57.2,30.8,57.2 M67.5,57.8C67.5,57.8,67.5,57.8,67.5,57.8
		C67.5,57.8,67.5,57.8,67.5,57.8 M49.4,16.6C34.9,16.6,23,28.4,23,42.9c0,5,1.4,9.7,4,13.9c-1.4,1.5-3.3,4.9-3.3,12.1
		c0,10.4,13.8,11.7,25.8,11.7c14,0,25.5-0.9,25.5-11.5c0-5.5-1.8-9.9-3.6-11.8c2.8-4.3,4.3-9.3,4.3-14.4
		C75.8,28.4,63.9,16.6,49.4,16.6L49.4,16.6z"/>
	<g>
		<path class="st4" d="M29.5,58.1c1.9-2.5,3.5,1.4,19.7,1.4s17.4-3.3,20.3-0.5c1.3,1.2,3.1,5.1,3.1,10.3c0,7.5-7.6,9-23,9
			S26.3,75.7,26.3,69C26.3,59.8,29.5,58.1,29.5,58.1z"/>
		<path class="st1" d="M49.5,78.8c-16.5,0-23.9-3-23.9-9.8c0-8.5,2.8-10.9,3.4-11.4c1.1-1.4,2.3-1.1,4.5-0.5c2.6,0.7,7,1.8,15.6,1.8
			c7.7,0,11.9-0.8,14.7-1.2c2.9-0.5,4.3-0.8,6,0.9c1.3,1.2,3.3,5.1,3.3,10.8C73.1,77.3,64.9,78.8,49.5,78.8z M29.8,58.6
			c-0.1,0-2.9,1.8-2.9,10.4c0,5.9,7,8.6,22.6,8.6c16.9,0,22.4-2,22.4-8.3c0-5.2-1.8-8.8-2.9-9.8c-1.3-1.2-2-1.1-4.9-0.6
			c-2.7,0.5-7.1,1.3-14.9,1.3c-8.8,0-13.2-1.1-15.9-1.8c-2.3-0.6-2.7-0.6-3.3,0.2C30,58.5,29.9,58.6,29.8,58.6z"/>
	</g>
	<g>
		<path class="st19" d="M49.2,59.4c13.2,0,16.4-2.2,18.8-1.5c3.3-4.1,5.3-9.3,5.3-15c0-13.2-10.7-23.9-23.9-23.9
			S25.5,29.8,25.5,42.9c0,5.4,1.8,10.4,4.9,14.4C32.2,56.6,35.4,59.4,49.2,59.4z"/>
		<path class="st1" d="M49.2,60.1c-8.8,0-13.2-1.1-15.9-1.8c-1.4-0.3-2.2-0.5-2.7-0.4c-0.3,0.1-0.6,0-0.7-0.2c-3.3-4.3-5-9.4-5-14.8
			c0-13.5,11-24.5,24.5-24.5c13.5,0,24.5,11,24.5,24.5c0,5.6-1.9,11-5.5,15.4c-0.2,0.2-0.4,0.3-0.7,0.2c-0.8-0.2-1.9-0.1-3.7,0.3
			C61.4,59.3,57,60.1,49.2,60.1z M31.1,56.6c0.7,0,1.4,0.2,2.5,0.5c2.6,0.7,7,1.8,15.6,1.8c7.7,0,11.9-0.7,14.7-1.2
			c1.7-0.3,2.8-0.5,3.8-0.3c3.2-4.1,4.9-9.1,4.9-14.3c0-12.8-10.4-23.2-23.2-23.2c-12.8,0-23.2,10.4-23.2,23.2
			c0,4.9,1.5,9.7,4.5,13.7C30.8,56.6,30.9,56.6,31.1,56.6z"/>
	</g>
	<path class="st20" d="M49.2,59.8c10.8,0,13.5-1.8,15.4-1.2C67.3,55.2,69,51,69,46.3c0-10.8-8.8-19.5-19.6-19.5s-19.6,8.7-19.6,19.5
		c0,4.4,1.5,8.5,4,11.8C35.3,57.5,37.9,59.8,49.2,59.8z"/>
	<path class="st8" d="M64.8,53.3l-5.4-7h2.8l-8.3-10.7h4.4l-8.9-11.4l-8.9,11.4H45l-8.3,10.7h2.8l-5.4,7l0,0
		C44.1,55.8,54.7,55.8,64.8,53.3L64.8,53.3z"/>
	<path class="st9" d="M45,35.6l-8.3,10.7l4.4,0.4c5.5,0.5,11.1,0.5,16.7-0.1l4.4-0.5l-8.2-10.6l-1.2,0.1c-2.2,0.2-4.4,0.2-6.5,0
		L45,35.6z"/>
	<path class="st1" d="M49.2,60.1c-8.8,0-13.2-1.1-15.9-1.8c-1.4-0.3-2.2-0.5-2.7-0.4c-0.3,0.1-0.6,0-0.7-0.2c-3.3-4.3-5-9.4-5-14.8
		c0-13.5,11-24.5,24.5-24.5c13.5,0,24.5,11,24.5,24.5c0,5.6-1.9,11-5.5,15.4c-0.2,0.2-0.4,0.3-0.7,0.2c-0.8-0.2-1.9-0.1-3.7,0.3
		C61.4,59.3,57,60.1,49.2,60.1z M31.1,56.6c0.7,0,1.4,0.2,2.5,0.5c2.6,0.7,7,1.8,15.6,1.8c7.7,0,11.9-0.7,14.7-1.2
		c1.7-0.3,2.8-0.5,3.8-0.3c3.2-4.1,4.9-9.1,4.9-14.3c0-12.8-10.4-23.2-23.2-23.2c-12.8,0-23.2,10.4-23.2,23.2
		c0,4.9,1.5,9.7,4.5,13.7C30.8,56.6,30.9,56.6,31.1,56.6z"/>
	<g>
		<rect x="39" y="63.6" class="st11" width="20.8" height="6.9"/>
		<path class="st1" d="M59.8,71.2H39c-0.3,0-0.6-0.3-0.6-0.6v-6.9c0-0.3,0.3-0.6,0.6-0.6h20.8c0.3,0,0.6,0.3,0.6,0.6v6.9
			C60.4,70.9,60.1,71.2,59.8,71.2z M39.6,69.9h19.5v-5.7H39.6V69.9z"/>
	</g>
	<g>
		<path class="st1" d="M42.8,68.8c-0.3,0-0.6-0.3-0.6-0.6v-1.7c0-0.3,0.3-0.6,0.6-0.6c0.3,0,0.6,0.3,0.6,0.6v1.7
			C43.4,68.5,43.1,68.8,42.8,68.8z"/>
	</g>
	<g>
		<path class="st1" d="M45.5,68.8c-0.3,0-0.6-0.3-0.6-0.6v-1c0-0.3,0.3-0.6,0.6-0.6s0.6,0.3,0.6,0.6v1
			C46.2,68.5,45.9,68.8,45.5,68.8z"/>
	</g>
	<g>
		<path class="st1" d="M48.3,68.8c-0.3,0-0.6-0.3-0.6-0.6V67c0-0.3,0.3-0.6,0.6-0.6c0.3,0,0.6,0.3,0.6,0.6v1.1
			C49,68.5,48.7,68.8,48.3,68.8z"/>
	</g>
	<g>
		<path class="st1" d="M51.1,68.8c-0.3,0-0.6-0.3-0.6-0.6v-0.6c0-0.3,0.3-0.6,0.6-0.6c0.3,0,0.6,0.3,0.6,0.6v0.6
			C51.7,68.5,51.5,68.8,51.1,68.8z"/>
	</g>
	<g>
		<path class="st1" d="M53.9,68.8c-0.3,0-0.6-0.3-0.6-0.6v-1c0-0.3,0.3-0.6,0.6-0.6s0.6,0.3,0.6,0.6v1
			C54.5,68.5,54.2,68.8,53.9,68.8z"/>
	</g>
	<g>
		<path class="st1" d="M56.7,68.8c-0.3,0-0.6-0.3-0.6-0.6V67c0-0.3,0.3-0.6,0.6-0.6c0.3,0,0.6,0.3,0.6,0.6v1.1
			C57.3,68.5,57,68.8,56.7,68.8z"/>
	</g>
	<g>
		<path class="st14" d="M45.5,55.1v4.2c1.1,0,2.3,0.1,3.6,0.1c1.5,0,2.8,0,4.1-0.1v-4.2C50.7,55.3,48.1,55.3,45.5,55.1z"/>
		<path class="st1" d="M49.2,60.1c-1.3,0-2.5,0-3.6-0.1c-0.3,0-0.6-0.3-0.6-0.6v-4.2c0-0.2,0.1-0.3,0.2-0.5c0.1-0.1,0.3-0.2,0.5-0.2
			c2.5,0.2,5.1,0.2,7.6,0c0.2,0,0.3,0.1,0.5,0.2c0.1,0.1,0.2,0.3,0.2,0.5v4.2c0,0.3-0.3,0.6-0.6,0.6C52,60,50.7,60.1,49.2,60.1z
			 M46.2,58.8c2,0.1,4.5,0.1,6.4,0v-3c-2.1,0.1-4.3,0.1-6.4,0V58.8z"/>
	</g>
	<circle class="st21" cx="45.5" cy="41.6" r="1.9"/>
	<circle class="st0" cx="37.7" cy="27.8" r="1.3"/>
	<circle class="st0" cx="36.4" cy="39.2" r="1.3"/>
	<circle class="st0" cx="57" cy="27.8" r="1.3"/>
	<circle class="st0" cx="66.7" cy="32.6" r="1.3"/>
	<circle class="st0" cx="63" cy="39.3" r="1.3"/>
	<circle class="st0" cx="68" cy="49.3" r="1.3"/>
	<circle class="st0" cx="42.2" cy="50.6" r="1.3"/>
	<circle class="st0" cx="54.7" cy="44.2" r="1.3"/>
	<circle class="st0" cx="30.8" cy="46.1" r="1.3"/>
	<path class="st1" d="M49.4,55.8c-5.2,0-10.5-0.6-15.6-1.9c-0.2-0.1-0.4-0.2-0.4-0.4c-0.1-0.2,0-0.4,0.1-0.6l4.6-5.9h-1.5
		c-0.2,0-0.5-0.1-0.6-0.4c-0.1-0.2-0.1-0.5,0.1-0.7l7.5-9.7h-3.2c-0.2,0-0.5-0.1-0.6-0.4c-0.1-0.2-0.1-0.5,0.1-0.7l8.9-11.4
		c0.1-0.2,0.3-0.2,0.5-0.2l0,0c0.2,0,0.4,0.1,0.5,0.2l8.9,11.4c0.1,0.2,0.2,0.4,0.1,0.7c-0.1,0.2-0.3,0.4-0.6,0.4h-3.2l7.5,9.7
		c0.1,0.2,0.2,0.4,0.1,0.7c-0.1,0.2-0.3,0.4-0.6,0.4h-1.5l4.6,5.9c0.1,0.2,0.2,0.4,0.1,0.6c-0.1,0.2-0.2,0.4-0.4,0.4
		C59.9,55.2,54.6,55.8,49.4,55.8z M35.1,52.9c9.4,2.1,19.2,2.1,28.6,0l-4.8-6.2c-0.1-0.2-0.2-0.4-0.1-0.7c0.1-0.2,0.3-0.4,0.6-0.4
		h1.5L53.3,36c-0.1-0.2-0.2-0.4-0.1-0.7c0.1-0.2,0.3-0.4,0.6-0.4H57l-7.6-9.8L41.8,35H45c0.2,0,0.5,0.1,0.6,0.4
		c0.1,0.2,0.1,0.5-0.1,0.7l-7.5,9.7h1.5c0.2,0,0.5,0.1,0.6,0.4c0.1,0.2,0.1,0.5-0.1,0.7L35.1,52.9z"/>
	<circle class="st22" cx="55.7" cy="50.3" r="1.9"/>
	<circle class="st23" cx="50.2" cy="31.9" r="1.9"/>
	<path class="st15" d="M72.5,69.2c0-0.1,0-0.1,0-0.1c-0.8,2.3-4.9,5.9-22.3,5.9c-22.5,0-23.8-7.1-23.8-9c-0.1,0.9-0.1,1.9-0.1,3
		c0,6.7,7.9,9.2,23.3,9.2S72.5,76.7,72.5,69.2z"/>
	<path class="st1" d="M49.5,78.8c-16.5,0-23.9-3-23.9-9.8c0-8.5,2.8-10.9,3.4-11.4c1.1-1.4,2.3-1.1,4.5-0.5c2.6,0.7,7,1.8,15.6,1.8
		c7.7,0,11.9-0.8,14.7-1.2c2.9-0.5,4.3-0.8,6,0.9c1.3,1.2,3.3,5.1,3.3,10.8C73.1,77.3,64.9,78.8,49.5,78.8z M29.8,58.6
		c-0.1,0-2.9,1.8-2.9,10.4c0,5.9,7,8.6,22.6,8.6c16.9,0,22.4-2,22.4-8.3c0-5.2-1.8-8.8-2.9-9.8c-1.3-1.2-2-1.1-4.9-0.6
		c-2.7,0.5-7.1,1.3-14.9,1.3c-8.8,0-13.2-1.1-15.9-1.8c-2.3-0.6-2.7-0.6-3.3,0.2C30,58.5,29.9,58.6,29.8,58.6z"/>
	<ellipse transform="matrix(0.8673 0.4979 -0.4979 0.8673 34.9585 -7.0784)" class="st10" cx="30.8" cy="62" rx="1.1" ry="2.9"/>
</g>
</svg>
