<?xml version="1.0" encoding="utf-8"?>
<!-- Generator: Adobe Illustrator 19.1.0, SVG Export Plug-In . SVG Version: 6.00 Build 0)  -->
<svg version="1.1" id="Layer_1" xmlns="http://www.w3.org/2000/svg" xmlns:xlink="http://www.w3.org/1999/xlink" x="0px" y="0px"
	 viewBox="0 0 100 100" style="enable-background:new 0 0 100 100;" xml:space="preserve">
<style type="text/css">
	.st0{fill:#F1F1F2;}
	.st1{fill:#640F13;}
	.st2{fill:#FCE8D0;}
	.st3{fill:#E6E7E8;}
	.st4{fill:#DB4342;}
	.st5{fill:#FACCAA;}
	.st6{fill:#FFFFFF;}
	.st7{fill:#C83D3C;}
	.st8{fill:#98CF97;}
	.st9{fill:#83B585;}
	.st10{fill:#E86363;}
	.st11{fill:#FFDF00;}
	.st12{fill:#FFF69D;}
	.st13{fill:#FFF5CA;}
	.st14{fill:#D0AF8B;}
	.st15{fill:#BC3839;}
	.st16{fill:#E8DEB9;}
	.st17{fill:#DFC0A9;}
	.st18{fill:#640F14;}
	.st19{fill:#BADDEE;}
	.st20{fill:#9DD3ED;}
	.st21{fill:#D17663;}
	.st22{fill:#839CC1;}
	.st23{fill:#E0D682;}
	.st24{fill:#E07B25;}
	.st25{fill:#77A9C3;}
	.st26{fill:#008BB3;}
	.st27{fill:#2385A5;}
	.st28{fill:#6CADCA;}
	.st29{fill:#DBDCDD;}
	.st30{fill:#7AB17B;}
	.st31{fill:#C3996B;}
	.st32{fill:#B18C62;}
	.st33{fill:#D7B492;}
	.st34{fill:#F27575;}
	.st35{fill:#992E34;}
	.st36{fill:#D0D2D3;}
	.st37{fill:#AE3334;}
	.st38{fill:#A9865E;}
	.st39{fill:#231F20;}
	.st40{fill:#FCC010;}
	.st41{fill:#F4EDB8;}
	.st42{fill:#E29E16;}
</style>
<g>
	<g>
		<g>
			<path class="st13" d="M84.1,30.4c-3.1-5.9-5.3-9.1-6.6-10.3c-2.4-2.1-5.3,1.4-2.7,4.6c3.8,4.7,6.4,11.7,3.3,13
				c-3.1,1.4-5.4-1.6-7-4.9c-1.5-3.3-4.8-1.4-2.6,4c1.9,4.6-2.1,5.4-3.4,5.5c1.4,2.4,2.2,5.3,2.2,8.3l0.1,0.6c0.2,0,0.4,0.1,0.7,0.1
				c5.5,0.2,13.3-2.9,16.3-5.7C87.3,42.8,87.1,36.1,84.1,30.4z"/>
			<path class="st1" d="M68.5,52c-0.2,0-0.3,0-0.5,0c-0.3,0-0.5-0.1-0.8-0.1c-0.3-0.1-0.5-0.3-0.5-0.5l-0.1-0.6
				c0-2.9-0.7-5.7-2.1-8.1c-0.1-0.2-0.1-0.4,0-0.6c0.1-0.2,0.3-0.3,0.5-0.3c0.7-0.1,2.3-0.4,3-1.5c0.5-0.8,0.4-1.8-0.1-3.1
				c-1.4-3.5-0.7-5.7,0.6-6.3c0.9-0.4,2.3,0,3.2,1.8c1.9,4,3.9,5.5,6.1,4.6c0.5-0.2,0.8-0.6,0.9-1.2c0.6-2.3-1.4-7.1-4.4-10.9
				c-1.7-2.1-1.3-4.4-0.2-5.5c0.9-0.8,2.4-1.2,3.8,0c1.5,1.3,3.9,5,6.8,10.5l0,0c3.2,6.1,3.3,13,0.1,16C81.9,48.9,74.2,52,68.5,52z
				 M67.9,50.7c0.1,0,0.1,0,0.2,0c5.4,0.2,13.1-2.9,15.9-5.5c2.7-2.6,2.5-8.9-0.4-14.5l0,0c-3.8-7.2-5.7-9.4-6.5-10.1
				C76.3,20,75.6,20,75,20.5c-0.8,0.7-0.9,2.3,0.3,3.8c2.8,3.5,5.4,8.9,4.7,11.9c-0.2,1-0.8,1.7-1.6,2c-2,0.9-5,0.7-7.8-5.2
				c-0.5-1-1.1-1.4-1.5-1.2c-0.7,0.3-1.1,1.9,0,4.7c0.7,1.7,0.7,3.1,0,4.3c-0.7,1.2-2,1.7-3,2C67.3,45.2,67.9,47.9,67.9,50.7
				L67.9,50.7z"/>
		</g>
		<g>
			<path class="st14" d="M52,77.8h-1.9c-7.6,0-14-5.1-15.9-12.1c-0.6-2-0.6-4.2-0.4-6.3l1-8.7c0-9.1,7.1-16.5,16.2-16.5l0,0
				c9.1,0,16.2,7.4,16.2,16.5l1,8.7c0.2,2.1,0.2,4.2-0.4,6.3C66,72.6,59.6,77.8,52,77.8z"/>
			<path class="st1" d="M52,78.4h-1.9c-7.7,0-14.5-5.2-16.5-12.6c-0.5-1.9-0.7-4.1-0.4-6.5l1-8.7c0-9.5,7.4-17.1,16.8-17.1
				c9.4,0,16.8,7.5,16.8,17.1l1,8.6c0.3,2.4,0.2,4.6-0.4,6.5C66.5,73.2,59.7,78.4,52,78.4z M51.1,34.8c-8.7,0-15.6,7-15.6,15.9
				l-1,8.8c-0.3,2.2-0.1,4.2,0.3,6c1.9,6.9,8.2,11.6,15.3,11.6H52c7.1,0,13.4-4.8,15.3-11.6c0.5-1.8,0.6-3.8,0.3-6l-1-8.7
				C66.6,41.8,59.8,34.8,51.1,34.8z"/>
		</g>
		<g>
			<path class="st13" d="M34.8,51.3l0.1-0.6c0-3,0.8-5.9,2.2-8.3c-1.3-0.1-5.2-1-3.4-5.5c2.2-5.4-1.1-7.2-2.6-4
				c-1.5,3.3-3.8,6.3-7,4.9c-3.1-1.4-0.5-8.3,3.3-13c2.6-3.1-0.3-6.7-2.7-4.6c-1.3,1.2-3.6,4.4-6.6,10.3c-3,5.7-3.2,12.4-0.3,15.2
				c3,2.8,10.8,5.9,16.3,5.7C34.3,51.4,34.6,51.3,34.8,51.3z"/>
			<path class="st1" d="M33.6,52c-5.7,0-13.4-3.1-16.3-5.9c-3.1-3-3.1-9.9,0.1-16c2.9-5.5,5.2-9.2,6.8-10.5c1.4-1.2,2.9-0.9,3.8,0
				c1.2,1.1,1.5,3.4-0.2,5.5c-3.1,3.8-5,8.5-4.4,10.9c0.1,0.6,0.4,1,0.9,1.2c2.2,1,4.3-0.6,6.1-4.6c0.9-1.8,2.2-2.2,3.2-1.8
				c1.3,0.6,2.1,2.8,0.6,6.3c-0.5,1.3-0.6,2.4-0.1,3.1c0.7,1.1,2.3,1.4,3,1.5c0.2,0,0.4,0.2,0.5,0.3c0.1,0.2,0.1,0.4,0,0.6
				c-1.4,2.4-2.1,5.2-2.1,8l-0.1,0.7c0,0.3-0.2,0.5-0.5,0.5l-0.1-0.6l0.1,0.6c-0.2,0-0.5,0.1-0.8,0.1C34,52,33.8,52,33.6,52z
				 M26.2,20.1c-0.4,0-0.8,0.2-1.1,0.5c-0.8,0.7-2.7,2.9-6.5,10.1c-2.9,5.6-3.1,11.9-0.4,14.5c2.8,2.6,10.5,5.7,15.9,5.5
				c0.1,0,0.1,0,0.2,0l0-0.1c0-2.7,0.6-5.4,1.9-7.8c-1-0.2-2.3-0.8-3-2c-0.7-1.1-0.6-2.6,0-4.3c1.1-2.7,0.7-4.4,0-4.7
				c-0.4-0.2-1,0.2-1.5,1.2c-2.8,5.9-5.8,6.1-7.8,5.2c-0.8-0.4-1.4-1.1-1.6-2c-0.8-3.1,1.9-8.5,4.7-11.9c1.2-1.5,1-3.1,0.3-3.8
				C26.9,20.3,26.5,20.1,26.2,20.1z"/>
		</g>
		<path class="st1" d="M75.9,19.5c0.5,0,1,0.2,1.5,0.6c1.3,1.2,3.6,4.4,6.6,10.3c3,5.7,3.2,12.4,0.3,15.2c-2.9,2.8-16.6,5.6-17,5.6
			c0,0,0,0,0,0l1,8.1c0.2,2.1,0.2,4.2-0.4,6.3c-1.9,7-8.3,12.1-15.9,12.1h-1.9c-7.6,0-14-5.1-15.9-12.1c-0.6-2-0.6-4.2-0.4-6.3
			l1-8.1c-0.2,0-0.4,0.1-0.7,0.1c-0.1,0-0.3,0-0.4,0c-5.5,0-13-3-15.9-5.7c-3-2.8-2.7-9.5,0.3-15.2c3.1-5.9,5.3-9.1,6.6-10.3
			c0.5-0.4,1-0.6,1.5-0.6c1.9,0,3.2,2.7,1.2,5.2c-3.8,4.7-6.4,11.7-3.3,13c0.5,0.2,1,0.3,1.5,0.3c2.4,0,4.2-2.5,5.4-5.2
			c0.5-1.1,1.2-1.6,1.9-1.6c1.3,0,2.2,2,0.8,5.6c-1.9,4.6,2.1,5.4,3.4,5.5c2.8-4.9,7.9-8.2,14-8.2s11.2,3.3,14,8.2
			c1.3-0.1,5.2-1,3.4-5.5c-1.5-3.6-0.5-5.6,0.8-5.6c0.6,0,1.4,0.5,1.9,1.6c1.3,2.7,3.1,5.2,5.4,5.2c0.5,0,1-0.1,1.5-0.3
			c3.1-1.4,0.5-8.3-3.3-13C72.7,22.2,74.1,19.5,75.9,19.5 M26.2,17c-1.1,0-2.2,0.4-3.2,1.3c-1.7,1.5-4.2,5.2-7.2,11
			c-3.7,7-3.6,14.6,0.2,18.2c3.2,3.1,10.3,5.8,15.9,6.3l-0.6,5.3c-0.3,2.6-0.2,5,0.4,7.2c2.3,8.2,9.8,14,18.3,14H52
			c8.5,0,16.1-5.7,18.3-14c0.6-2.2,0.7-4.6,0.4-7.2l-0.7-5.8c4.5-1,13.2-3.2,16-5.8c3.8-3.6,3.9-11.3,0.2-18.2
			c-3.1-5.8-5.5-9.5-7.2-11c-0.9-0.8-2-1.3-3.2-1.3h0h0c-1.8,0-3.4,1.1-4.2,2.7c-1,2.1-0.6,4.6,1,6.6c3.1,3.9,4.4,8.1,4.1,9.2
			c-0.1,0-0.3,0.1-0.4,0.1c-0.6,0-1.9-1-3.2-3.8c-0.9-1.9-2.5-3.1-4.2-3.1h0c-1.3,0-2.4,0.6-3.1,1.7c-1.2,1.7-1.2,4.3,0.1,7.3
			c0.4,0.9,0.3,1.4,0.3,1.5c0,0.1-0.1,0.1-0.2,0.2c-3.5-4.9-9-7.7-15.1-7.7c-6.1,0-11.6,2.9-15.1,7.7c-0.1-0.1-0.2-0.1-0.2-0.2
			c-0.1-0.1-0.1-0.6,0.3-1.5c1.2-3,1.2-5.6,0.1-7.3c-0.7-1.1-1.9-1.7-3.1-1.7c-1.7,0-3.3,1.1-4.2,3.1c-1.3,2.8-2.5,3.8-3.2,3.8
			c-0.1,0-0.2,0-0.4-0.1c-0.3-1.1,0.9-5.3,4.1-9.2c1.6-2,2-4.5,1-6.6C29.6,18,28,17,26.2,17C26.2,17,26.2,17,26.2,17L26.2,17z"/>
		<g>
			<path class="st4" d="M52.1,54.3c-7.2,0-14.2,1.9-13.6,5.5c0.5,3.6,5,8.9,12.6,8.9c7,0,12.6-5.3,12.6-9.4S57.5,54.3,52.1,54.3z"/>
			<path class="st1" d="M51.1,69.3c-8.1,0-12.7-5.7-13.2-9.5c-0.1-1,0.1-1.8,0.8-2.6c2.3-2.6,8.4-3.6,13.4-3.6
				c8.1,0,12.2,1.9,12.2,5.6C64.3,63.8,58.4,69.3,51.1,69.3z M52.1,54.9c-5.8,0-10.9,1.3-12.5,3.1c-0.4,0.5-0.6,1.1-0.5,1.6
				c0.5,3.5,4.9,8.4,12,8.4c7,0,12-5.3,12-8.8C63.1,55.7,57.1,54.9,52.1,54.9z"/>
		</g>
		<path class="st1" d="M51.1,74.6c-2.7,0-4.2-1.8-4.2-1.9c-0.2-0.3-0.2-0.7,0.1-0.9c0.3-0.2,0.7-0.2,0.9,0.1
			c0.1,0.1,1.2,1.4,3.2,1.4c2.1,0,3.2-1.4,3.2-1.4c0.2-0.3,0.6-0.3,0.9-0.1c0.3,0.2,0.3,0.6,0.1,0.9C55.2,72.8,53.8,74.6,51.1,74.6z
			"/>
		<path class="st15" d="M51.6,62.7c-3.4,0-6.6,0.5-6.4,1.4c0.2,0.9,2.3,2.3,5.9,2.3c3.3,0,5.9-1.4,5.9-2.4
			C57,62.9,54.1,62.7,51.6,62.7z"/>
		<path class="st16" d="M35.1,46.8c-4.8-0.9-4.3-3.1-6.8-3.4s-3.3,2.3-8.5-0.8c-2.4-1.4-3.4-5.3-3.4-7.8c-1.2,4.5-0.8,8.8,1.4,10.9
			c3,2.8,10.8,5.9,16.3,5.7c0.3,0,0.5-0.1,0.7-0.1l0.1-0.6c0-0.9,0.1-1.7,0.2-2.6C34.6,48,35.5,46.9,35.1,46.8z"/>
		<path class="st16" d="M67.3,50.7l0.1,0.6c0.2,0,0.4,0.1,0.7,0.1c5.5,0.2,13.3-2.9,16.3-5.7c2.4-2.3,2.7-7.1,1.2-11.9
			c-0.5,5.8-1.3,7.4-3.8,9.3c-2.6,2-4.8,0.9-8.5,1.4c-3.5,0.5-2.9,3.1-6.2,3.7C67.2,49,67.3,49.8,67.3,50.7z"/>
		<path class="st1" d="M33.6,52c-5.7,0-13.4-3.1-16.3-5.9c-3.1-3-3.1-9.9,0.1-16c2.9-5.5,5.2-9.2,6.8-10.5c1.4-1.2,2.9-0.9,3.8,0
			c1.2,1.1,1.5,3.4-0.2,5.5c-3.1,3.8-5,8.5-4.4,10.9c0.1,0.6,0.4,1,0.9,1.2c2.2,1,4.3-0.6,6.1-4.6c0.9-1.8,2.2-2.2,3.2-1.8
			c1.3,0.6,2.1,2.8,0.6,6.3c-0.5,1.3-0.6,2.4-0.1,3.1c0.7,1.1,2.3,1.4,3,1.5c0.2,0,0.4,0.2,0.5,0.3c0.1,0.2,0.1,0.4,0,0.6
			c-1.4,2.4-2.1,5.2-2.1,8l-0.1,0.7c0,0.3-0.2,0.5-0.5,0.5l-0.1-0.6l0.1,0.6c-0.2,0-0.5,0.1-0.8,0.1C34,52,33.8,52,33.6,52z
			 M26.2,20.1c-0.4,0-0.8,0.2-1.1,0.5c-0.8,0.7-2.7,2.9-6.5,10.1c-2.9,5.6-3.1,11.9-0.4,14.5c2.8,2.6,10.5,5.7,15.9,5.5
			c0.1,0,0.1,0,0.2,0l0-0.1c0-2.7,0.6-5.4,1.9-7.8c-1-0.2-2.3-0.8-3-2c-0.7-1.1-0.6-2.6,0-4.3c1.1-2.7,0.7-4.4,0-4.7
			c-0.4-0.2-1,0.2-1.5,1.2c-2.8,5.9-5.8,6.1-7.8,5.2c-0.8-0.4-1.4-1.1-1.6-2c-0.8-3.1,1.9-8.5,4.7-11.9c1.2-1.5,1-3.1,0.3-3.8
			C26.9,20.3,26.5,20.1,26.2,20.1z"/>
		<path class="st1" d="M68.5,52c-0.2,0-0.3,0-0.5,0c-0.3,0-0.5-0.1-0.8-0.1c-0.3-0.1-0.5-0.3-0.5-0.5l-0.1-0.6
			c0-2.9-0.7-5.7-2.1-8.1c-0.1-0.2-0.1-0.4,0-0.6c0.1-0.2,0.3-0.3,0.5-0.3c0.7-0.1,2.3-0.4,3-1.5c0.5-0.8,0.4-1.8-0.1-3.1
			c-1.4-3.5-0.7-5.7,0.6-6.3c0.9-0.4,2.3,0,3.2,1.8c1.9,4,3.9,5.5,6.1,4.6c0.5-0.2,0.8-0.6,0.9-1.2c0.6-2.3-1.4-7.1-4.4-10.9
			c-1.7-2.1-1.3-4.4-0.2-5.5c0.9-0.8,2.4-1.2,3.8,0c1.5,1.3,3.9,5,6.8,10.5l0,0c3.2,6.1,3.3,13,0.1,16C81.9,48.9,74.2,52,68.5,52z
			 M67.9,50.7c0.1,0,0.1,0,0.2,0c5.4,0.2,13.1-2.9,15.9-5.5c2.7-2.6,2.5-8.9-0.4-14.5l0,0c-3.8-7.2-5.7-9.4-6.5-10.1
			C76.3,20,75.6,20,75,20.5c-0.8,0.7-0.9,2.3,0.3,3.8c2.8,3.5,5.4,8.9,4.7,11.9c-0.2,1-0.8,1.7-1.6,2c-2,0.9-5,0.7-7.8-5.2
			c-0.5-1-1.1-1.4-1.5-1.2c-0.7,0.3-1.1,1.9,0,4.7c0.7,1.7,0.7,3.1,0,4.3c-0.7,1.2-2,1.7-3,2C67.3,45.2,67.9,47.9,67.9,50.7
			L67.9,50.7z"/>
		
			<ellipse transform="matrix(0.8715 -0.4905 0.4905 0.8715 -23.3392 28.7415)" class="st10" cx="43.2" cy="58.9" rx="1.9" ry="0.9"/>
	</g>
	<g>
		<g>
			<circle class="st6" cx="44.8" cy="48.4" r="3"/>
			<path class="st1" d="M44.8,52c-2,0-3.6-1.6-3.6-3.6c0-2,1.6-3.6,3.6-3.6s3.6,1.6,3.6,3.6C48.4,50.4,46.7,52,44.8,52z M44.8,46.1
				c-1.3,0-2.3,1-2.3,2.3c0,1.3,1,2.3,2.3,2.3s2.3-1,2.3-2.3C47.1,47.1,46,46.1,44.8,46.1z"/>
		</g>
		<g>
			<circle class="st6" cx="57.4" cy="48.4" r="3"/>
			<path class="st1" d="M57.4,52c-2,0-3.6-1.6-3.6-3.6c0-2,1.6-3.6,3.6-3.6c2,0,3.6,1.6,3.6,3.6C61,50.4,59.4,52,57.4,52z
				 M57.4,46.1c-1.3,0-2.3,1-2.3,2.3c0,1.3,1,2.3,2.3,2.3c1.3,0,2.3-1,2.3-2.3C59.7,47.1,58.7,46.1,57.4,46.1z"/>
		</g>
	</g>
	<g>
		<circle class="st1" cx="44" cy="48.4" r="1"/>
		<circle class="st1" cx="56.6" cy="48.4" r="1"/>
	</g>
	<ellipse transform="matrix(0.9355 0.3534 -0.3534 0.9355 18.2853 -18.5365)" class="st17" cx="59.9" cy="40.8" rx="2.5" ry="1.3"/>
	<ellipse transform="matrix(0.9355 0.3534 -0.3534 0.9355 16.8476 -17.1694)" class="st17" cx="55.4" cy="37.5" rx="1.8" ry="0.9"/>
</g>
</svg>
