<?xml version="1.0" encoding="utf-8"?>
<!-- Generator: Adobe Illustrator 19.1.0, SVG Export Plug-In . SVG Version: 6.00 Build 0)  -->
<svg version="1.1" id="Layer_1" xmlns="http://www.w3.org/2000/svg" xmlns:xlink="http://www.w3.org/1999/xlink" x="0px" y="0px"
	 viewBox="0 0 100 100" style="enable-background:new 0 0 100 100;" xml:space="preserve">
<style type="text/css">
	.st0{fill:#F1F1F2;}
	.st1{fill:#640F13;}
	.st2{fill:#FCE8D0;}
	.st3{fill:#E6E7E8;}
	.st4{fill:#DB4342;}
	.st5{fill:#FACCAA;}
	.st6{fill:#FFFFFF;}
	.st7{fill:#C83D3C;}
	.st8{fill:#98CF97;}
	.st9{fill:#83B585;}
	.st10{fill:#E86363;}
	.st11{fill:#FFDF00;}
	.st12{fill:#FFF69D;}
	.st13{fill:#FFF5CA;}
	.st14{fill:#D0AF8B;}
	.st15{fill:#BC3839;}
	.st16{fill:#E8DEB9;}
	.st17{fill:#DFC0A9;}
	.st18{fill:#640F14;}
	.st19{fill:#BADDEE;}
	.st20{fill:#9DD3ED;}
	.st21{fill:#D17663;}
	.st22{fill:#839CC1;}
	.st23{fill:#E0D682;}
	.st24{fill:#E07B25;}
	.st25{fill:#77A9C3;}
	.st26{fill:#008BB3;}
	.st27{fill:#2385A5;}
	.st28{fill:#6CADCA;}
	.st29{fill:#DBDCDD;}
	.st30{fill:#7AB17B;}
	.st31{fill:#C3996B;}
	.st32{fill:#B18C62;}
	.st33{fill:#D7B492;}
	.st34{fill:#F27575;}
	.st35{fill:#992E34;}
	.st36{fill:#D0D2D3;}
	.st37{fill:#AE3334;}
	.st38{fill:#A9865E;}
	.st39{fill:#231F20;}
	.st40{fill:#FCC010;}
	.st41{fill:#F4EDB8;}
	.st42{fill:#E29E16;}
</style>
<g>
	<path class="st1" d="M46.2,18.4c3.8,0,5,2.6,5,2.6l0.4,1.2c0.5-0.2,1-0.4,1.6-0.5c0.9-0.3,1.8-0.4,2.5-0.4c4.8,0,5.9,4.7,4.7,6.8
		c-0.8,1.3-2,2.3-2.9,2.8c3,2.4,4.9,6,4.9,10.1c0,1.5-0.3,2.9-0.7,4.2c0,0,6.1,4.3,5.6,6.9c-0.1,0.7-0.4,1.5-1.1,2.3l0,0
		c1.4,2.7,2.2,5.7,2.2,8.9c0,1.6-0.2,3.2-0.6,4.7c0,0,0,0,0,0c1.7,2,0.6,5,0.6,5c2.2,0.8,3.5,3,1.8,5.5c-1.7,2.5-9.3,3.7-20.8,3.7
		S29.2,81.9,28,77.6c-1.3-4.3,2.5-5.1,2.5-5.1c-1.1-2.1,0.6-4.3,0.6-4.3s0,0,0,0c-0.4-1.5-0.6-3.1-0.6-4.7c0-3.2,0.8-6.2,2.2-8.9
		c-0.8-1.1-1-2.1-0.9-2.8c0.4-2.3,5.4-6.4,5.4-6.4c-0.5-1.3-0.7-2.7-0.7-4.2c0-3.3,1.2-6.3,3.2-8.5l0,0c0,0-2.1-2.6-3.2-5.6
		c-1.1-2.9,1.4-6.7,7.2-8.2C44.6,18.5,45.4,18.4,46.2,18.4 M33,55c0,0,0.1,0.1,0.1,0.1C33.1,55.1,33.1,55.1,33,55
		c0,0-0.1-0.1-0.1-0.1C33,54.9,33,55,33,55 M46.2,15.9L46.2,15.9c-1,0-2,0.1-3.1,0.4c-4,1-7,3.1-8.5,5.9c-1,1.8-1.1,3.8-0.5,5.6
		c0.7,1.8,1.7,3.5,2.5,4.7c-1.7,2.5-2.6,5.5-2.6,8.6c0,1.1,0.1,2.3,0.4,3.4c-1.9,1.7-4.6,4.5-5,6.8c-0.2,1,0,2.2,0.5,3.4
		c-1.2,2.8-1.9,5.8-1.9,8.8c0,1.4,0.2,2.8,0.4,4.3c-0.4,0.9-0.8,2.1-0.8,3.3C27,71.5,26.5,72,26,72.8c-0.6,1.1-1.2,2.9-0.5,5.5
		c1.8,6.2,11.4,6.7,23.9,6.7c17.5,0,21.5-2.8,22.9-4.8c1.2-1.7,1.5-3.6,0.9-5.4c-0.4-1.1-1.1-2.1-2-2.8c0.1-1.2,0.1-2.8-0.8-4.3
		c0.3-1.4,0.4-2.8,0.4-4.2c0-3-0.6-6-1.8-8.7c0.4-0.7,0.6-1.4,0.7-2.1c0.5-3-2.6-6.2-5.2-8.3c0.2-1.1,0.4-2.2,0.4-3.3
		c0-3.7-1.3-7.2-3.7-10c0.5-0.5,0.9-1.1,1.3-1.7c1.1-2,1-4.7-0.2-6.9c-1.3-2.3-3.8-3.6-6.7-3.6c-0.8,0-1.7,0.1-2.7,0.3
		C51.8,17.7,49.7,15.9,46.2,15.9L46.2,15.9z"/>
	<g>
		<g>
			<circle class="st0" cx="49.4" cy="41.1" r="12.9"/>
			<path class="st1" d="M49.4,54.6c-7.5,0-13.6-6.1-13.6-13.6s6.1-13.6,13.6-13.6S63,33.6,63,41.1S56.9,54.6,49.4,54.6z M49.4,28.8
				c-6.8,0-12.3,5.5-12.3,12.3s5.5,12.3,12.3,12.3s12.3-5.5,12.3-12.3S56.2,28.8,49.4,28.8z"/>
		</g>
		<g>
			<path class="st24" d="M50.4,43.3l9.4,0.4l-8.2,4.7C49.9,49,48,47.8,48,45.9v0C48,44.5,49,43.4,50.4,43.3z"/>
			<path class="st1" d="M50.6,49.2c-0.6,0-1.3-0.2-1.8-0.5c-0.9-0.6-1.4-1.6-1.4-2.7c0-1.7,1.3-3.1,3-3.2c0,0,0,0,0.1,0l9.4,0.4
				c0.3,0,0.5,0.2,0.6,0.5c0.1,0.3-0.1,0.6-0.3,0.7l-8.2,4.7C51.5,49.1,51,49.2,50.6,49.2z M50.4,43.9c-1,0.1-1.8,1-1.8,2
				c0,0.7,0.3,1.3,0.9,1.7c0.6,0.4,1.2,0.4,1.9,0.2l6.2-3.5L50.4,43.9z"/>
		</g>
		<g>
			<path class="st0" d="M68.4,73.2c0,0,1.2-3.1-0.6-5c0,0,0,0,0,0c0.4-1.5,0.6-3.1,0.6-4.7c0-3.2-0.8-6.3-2.2-8.9
				c-1.8,2-6.2,3.8-16.7,4.5c-10.3,0.7-15-2-16.7-4.5c-1.4,2.7-2.2,5.7-2.2,8.9c0,1.6,0.2,3.2,0.6,4.7c0,0,0,0,0,0s-1.6,2.2-0.6,4.3
				c0,0-3.7,0.8-2.5,5.1c1.3,4.3,9.9,4.9,21.4,4.9s19.1-1.3,20.8-3.7C71.9,76.2,70.6,74,68.4,73.2z"/>
			<path class="st1" d="M49.4,83.1c-11.2,0-20.6-0.4-22.1-5.3c-0.5-1.6-0.4-2.9,0.3-4c0.6-0.9,1.4-1.4,2-1.7c-0.5-1.8,0.4-3.4,0.8-4
				c-0.4-1.5-0.6-3.1-0.6-4.6c0-3.2,0.8-6.3,2.3-9.2c0.1-0.2,0.3-0.3,0.5-0.3c0.2,0,0.4,0.1,0.6,0.3c1.1,1.5,4.9,5.1,16.2,4.2
				c8.8-0.6,14.2-2.1,16.3-4.3c0.1-0.2,0.3-0.2,0.5-0.2c0.2,0,0.4,0.1,0.5,0.3c1.5,2.8,2.3,6,2.3,9.2c0,1.5-0.2,3-0.6,4.5
				c1.3,1.7,1,3.8,0.7,4.9c1.1,0.5,1.9,1.4,2.3,2.5c0.3,0.8,0.4,2.1-0.7,3.7C68.5,82.4,57.9,83.1,49.4,83.1z M31.5,68.7
				c-0.3,0.4-1.2,2-0.5,3.5c0.1,0.2,0.1,0.4,0,0.6c-0.1,0.2-0.2,0.3-0.4,0.3c0,0-1.2,0.3-1.9,1.3c-0.5,0.8-0.5,1.8-0.1,3
				c1.2,4.1,10.5,4.4,20.8,4.4c16.2,0,19.6-2.4,20.3-3.5c0.6-0.9,0.8-1.8,0.6-2.6c-0.3-0.8-1-1.5-2.1-1.9c-0.2-0.1-0.3-0.2-0.4-0.3
				c-0.1-0.2-0.1-0.3,0-0.5c0,0,1-2.7-0.4-4.3c0,0,0,0,0,0c-0.2-0.2-0.2-0.4-0.2-0.6c0.4-1.5,0.6-3.1,0.6-4.6c0-2.7-0.6-5.4-1.8-7.9
				c-2.6,2.2-8,3.5-16.5,4.1c-10.2,0.7-14.7-1.9-16.7-4c-1.1,2.4-1.7,5-1.7,7.7c0,1.5,0.2,3,0.6,4.6C31.7,68.2,31.7,68.4,31.5,68.7
				C31.5,68.6,31.5,68.6,31.5,68.7z"/>
		</g>
		<g>
			<path class="st4" d="M61.6,45.3L61.6,45.3c-1.8,5.1-6.6,8.7-12.2,8.7s-10.5-3.6-12.2-8.7c0,0-5,4.1-5.4,6.4
				c-0.4,2.3,2.9,8.4,17.6,7.3c14.7-1,17.4-4.2,17.9-6.8C67.7,49.6,61.6,45.3,61.6,45.3z"/>
			<path class="st1" d="M46.2,59.8c-8.4,0-12-2.6-13.5-4.2c-1.4-1.5-1.7-3-1.5-4c0.4-2.5,5.1-6.4,5.6-6.8c0.2-0.1,0.4-0.2,0.6-0.1
				c0.2,0.1,0.4,0.2,0.4,0.4c1.7,5,6.4,8.3,11.6,8.3s9.9-3.3,11.6-8.3c0.1-0.2,0.2-0.3,0.4-0.4c0.2-0.1,0.4,0,0.6,0.1
				c0.7,0.5,6.4,4.6,5.9,7.6c-0.7,4.2-6.4,6.5-18.4,7.4C48.3,59.8,47.2,59.8,46.2,59.8z M36.9,46.4c-1.6,1.4-4.2,4-4.5,5.5
				c-0.1,0.6,0.1,1.7,1.2,2.9c1.5,1.7,5.6,4.4,15.8,3.7c16.5-1.2,17.1-5,17.3-6.3c0.2-1.5-2.6-4.2-4.7-5.8c-2.1,5-7,8.3-12.5,8.3
				C43.9,54.6,39,51.4,36.9,46.4z"/>
		</g>
		<g>
			<path class="st4" d="M46.3,59.2c-3.6,0-6.3-0.5-8.4-1.2c-0.9,1.9-1.6,4.4-1.6,7.6c0,7.9,1.9,11.3,4.5,12.1c2.6,0.7,9-3.2,9.2-5.2
				C50.2,70.7,45.3,66.3,46.3,59.2z"/>
			<path class="st1" d="M41.5,78.4c-0.3,0-0.6,0-0.9-0.1c-2.3-0.6-5-3.4-5-12.7c0-2.8,0.6-5.5,1.7-7.8c0.1-0.3,0.5-0.4,0.8-0.3
				c2.2,0.8,5,1.1,8.1,1.1c0,0,0,0,0.1,0c0.2,0,0.4,0.1,0.5,0.2c0.1,0.1,0.2,0.3,0.2,0.5c-0.6,4.6,1.3,8,2.6,10.3
				c0.7,1.3,1.2,2.2,1.1,3c-0.2,1.4-2.3,2.9-3.2,3.5C45.7,77.2,43.3,78.4,41.5,78.4z M38.2,58.8c-0.9,2.1-1.4,4.3-1.4,6.8
				c0,6.7,1.4,10.7,4.1,11.5c1.1,0.3,3.6-0.5,5.8-2c1.7-1.1,2.6-2.2,2.6-2.6c0-0.4-0.5-1.3-1-2.2c-1.3-2.3-3.2-5.8-2.8-10.4
				C42.8,59.8,40.3,59.4,38.2,58.8z"/>
		</g>
		<g>
			<path class="st25" d="M47.4,28.3c0.7-0.1,1.3-0.2,2-0.2c3,0,5.8,1.1,8,2.8c0.9-0.6,2.1-1.5,2.9-2.8c1.4-2.4-0.3-8.3-7.3-6.4
				s-5.7,6.4-5.7,6.4C47.4,28.2,47.4,28.2,47.4,28.3z"/>
			<path class="st1" d="M57.5,31.6c-0.1,0-0.3,0-0.4-0.1c-2.2-1.8-4.8-2.7-7.7-2.7c-0.6,0-1.2,0.1-1.9,0.2c-0.3,0-0.6-0.2-0.7-0.5
				c0,0,0-0.2,0-0.2l0,0c0,0-0.3-1.3,0.3-2.8c0.6-1.4,2-3.2,5.9-4.3c4.3-1.2,6.4,0.6,7.3,1.7c1.3,1.6,1.5,4.1,0.6,5.6
				c-0.7,1.2-1.7,2.2-3.1,3C57.7,31.5,57.6,31.6,57.5,31.6z M49.4,27.5c2.9,0,5.7,0.9,8.1,2.7c1-0.7,1.8-1.5,2.3-2.4
				c0.6-1,0.5-2.8-0.5-4.2c-1.2-1.5-3.3-2-6-1.3c-2.6,0.7-4.4,1.9-5,3.5c-0.3,0.7-0.3,1.3-0.3,1.7C48.4,27.5,48.9,27.5,49.4,27.5z"
				/>
		</g>
		<g>
			<g>
				<path class="st26" d="M47.4,28.3c0-0.1,0-0.1,0-0.2c0,0-1-3.8,4.1-5.9l-0.4-1.2c0,0-1.7-3.8-7.5-2.3c-5.8,1.5-8.3,5.2-7.2,8.2
					c1.1,2.9,3.2,5.6,3.2,5.6C41.7,30.3,44.4,28.7,47.4,28.3C47.5,28.3,47.4,28.3,47.4,28.3z"/>
				<path class="st1" d="M39.7,33.2C39.7,33.2,39.7,33.2,39.7,33.2c-0.2,0-0.4-0.1-0.5-0.2c-0.1-0.1-2.2-2.7-3.3-5.7
					c-0.5-1.3-0.4-2.8,0.4-4.1c1.2-2.2,3.8-4,7.3-4.9c6.2-1.6,8.2,2.6,8.2,2.7l0.4,1.2c0.1,0.3-0.1,0.6-0.4,0.8
					c-4.2,1.7-3.8,4.6-3.8,5.1c0.1,0.1,0.1,0.2,0.1,0.3c0,0.3-0.2,0.7-0.5,0.7c-2.9,0.4-5.5,1.9-7.4,4C40,33.1,39.9,33.2,39.7,33.2z
					 M46.2,19.1c-0.7,0-1.5,0.1-2.4,0.3c-3.1,0.8-5.5,2.3-6.5,4.3c-0.6,1-0.7,2.1-0.3,3.1c0.7,2,2,3.9,2.7,4.8
					c1.9-1.9,4.3-3.2,6.9-3.8c-0.1-1.1,0.1-4,4-5.9l-0.2-0.6C50.5,21.2,49.4,19.1,46.2,19.1z"/>
			</g>
			<g>
				<path class="st26" d="M49.4,28.1c-0.4,0-0.8,0-1.1,0.1C48.6,28.2,49,28.1,49.4,28.1z"/>
				<path class="st1" d="M48.3,28.8c-0.3,0-0.6-0.2-0.6-0.6c0-0.3,0.2-0.7,0.6-0.7c0.4,0,0.8-0.1,1.2-0.1c0.3,0,0.6,0.3,0.6,0.6
					s-0.3,0.6-0.6,0.6C49,28.8,48.7,28.8,48.3,28.8C48.3,28.8,48.3,28.8,48.3,28.8z"/>
			</g>
			<g>
				<path class="st26" d="M49.4,28.1c0.5,0,0.9,0,1.4,0.1C50.3,28.2,49.9,28.1,49.4,28.1z"/>
				<path class="st1" d="M50.8,28.8C50.8,28.8,50.7,28.8,50.8,28.8c-0.5,0-0.9-0.1-1.4-0.1c-0.3,0-0.6-0.3-0.6-0.6s0.3-0.6,0.6-0.6
					c0.5,0,1,0,1.4,0.1h0h0c0.3,0,0.6,0.3,0.6,0.7C51.4,28.6,51.1,28.8,50.8,28.8z"/>
			</g>
			<g>
				<path class="st26" d="M51,28.2c0.4,0.1,0.8,0.1,1.2,0.2C51.8,28.4,51.4,28.3,51,28.2z"/>
				<path class="st1" d="M52.2,29.1c0,0-0.1,0-0.1,0c0,0,0,0,0,0l0,0l0,0c-0.4-0.1-0.8-0.1-1.1-0.2c-0.3,0-0.6-0.4-0.5-0.7
					c0-0.3,0.4-0.6,0.7-0.5c0.4,0.1,0.8,0.1,1.3,0.2c0.3,0.1,0.6,0.4,0.5,0.8C52.7,28.9,52.5,29.1,52.2,29.1z"/>
			</g>
		</g>
		<g>
			<path class="st11" d="M46.3,63.2c-4.6,3.4-8.8,4.1-10.1,4.2c0.1,1.9,0.3,3.5,0.6,4.9c0.4,0,0.7,0,0.7,0c5.9-0.6,9-2.2,10.7-3.8
				C47.4,67.1,46.7,65.3,46.3,63.2z"/>
			<path class="st1" d="M37.5,72.9c-0.1,0-0.4,0-0.6,0c-0.3,0-0.5-0.2-0.6-0.5c-0.3-1.4-0.6-3.1-0.6-5c0-0.3,0.2-0.6,0.6-0.7
				c1.1-0.1,5.2-0.7,9.8-4.1c0.2-0.1,0.4-0.2,0.6-0.1c0.2,0.1,0.3,0.3,0.4,0.5c0.4,2.2,1.2,4,1.8,5.1c0.1,0.2,0.1,0.6-0.1,0.7
				c-2.2,2.1-6,3.5-11,4C37.6,72.9,37.5,72.9,37.5,72.9z M37.4,71.7c0.1,0,0.1,0,0.1,0c5.5-0.5,8.4-2,9.9-3.3
				c-0.5-1-1.1-2.4-1.5-4.1c-3.9,2.6-7.4,3.4-9,3.7C37,69.4,37.2,70.6,37.4,71.7z"/>
		</g>
		<path class="st27" d="M57.4,28.2c-0.2,0-0.3,0-0.4-0.1c-0.1-0.1-0.2-0.3-0.2-0.4c0-0.2,0-0.3,0.1-0.5c0,0,0,0,0,0
			c0,0,0.1-0.1,0.1-0.2c0.1-0.2,0.2-0.4,0.2-0.6c0-0.1,0-0.3-0.1-0.4c-0.1-0.2-0.1-0.3,0-0.5c0.1-0.2,0.2-0.3,0.3-0.4
			c0.3-0.1,0.7,0,0.8,0.3c0.1,0.3,0.2,0.6,0.2,0.9c0,0.6-0.2,1.2-0.6,1.7c0,0,0,0,0,0C57.7,28.1,57.6,28.2,57.4,28.2z M51.6,26.8
			c-0.1,0-0.2,0-0.3-0.1c-0.3-0.2-0.5-0.5-0.3-0.8l0,0c0.2-0.4,0.8-1.4,1.9-2.1c0.3-0.2,0.7,0,0.9,0.2c0.1,0.2,0.1,0.3,0.1,0.5
			c0,0.2-0.2,0.3-0.3,0.4c-0.5,0.3-0.9,0.7-1.1,1c-0.2,0.3-0.3,0.5-0.4,0.6c0,0,0,0,0,0C52.1,26.6,51.8,26.8,51.6,26.8z M55.7,24.7
			c-0.1,0-0.1,0-0.2,0h0c-0.3-0.1-0.5-0.5-0.4-0.8c0.1-0.3,0.5-0.5,0.8-0.4c0.2,0.1,0.3,0.2,0.4,0.3c0.1,0.2,0.1,0.3,0,0.5
			C56.2,24.6,56,24.7,55.7,24.7z"/>
		<path class="st28" d="M38.9,27.4C38.9,27.4,38.9,27.4,38.9,27.4c-0.4,0-0.6-0.3-0.6-0.6c0-0.1,0.2-3.1,5.4-4.5
			c0.3-0.1,0.7,0.1,0.8,0.5c0.1,0.3-0.1,0.7-0.5,0.8c-4.3,1.1-4.4,3.2-4.4,3.3C39.5,27.1,39.3,27.4,38.9,27.4z"/>
		<path class="st28" d="M40.3,29.1C40.3,29.1,40.3,29.1,40.3,29.1c-0.4,0-0.7-0.3-0.6-0.7c0-0.1,0.2-1.9,2.2-2.8
			c0.3-0.1,0.7,0,0.8,0.3c0.1,0.3,0,0.7-0.3,0.8c-1.4,0.6-1.5,1.8-1.5,1.8C40.9,28.8,40.7,29.1,40.3,29.1z"/>
		<circle class="st1" cx="45" cy="38.4" r="2.3"/>
		<circle class="st1" cx="54.7" cy="38.4" r="2.3"/>
		<path class="st15" d="M34.4,47.9c0,0,1.7,9.4,12.9,8.9c13.5-0.6,15.5-5.8,15.1-10.5c0-0.2,0-0.3,0-0.5c-0.4-0.3-0.7-0.5-0.7-0.5
			c-1.8,5.1-6.6,8.7-12.2,8.7s-10.5-3.6-12.2-8.7C37.2,45.3,35.8,46.5,34.4,47.9z"/>
		<path class="st1" d="M46.2,59.8c-8.4,0-12-2.6-13.5-4.2c-1.4-1.5-1.7-3-1.5-4c0.4-2.5,5.1-6.4,5.6-6.8c0.2-0.1,0.4-0.2,0.6-0.1
			c0.2,0.1,0.4,0.2,0.4,0.4c1.7,5,6.4,8.3,11.6,8.3s9.9-3.3,11.6-8.3c0.1-0.2,0.2-0.3,0.4-0.4c0.2-0.1,0.4,0,0.6,0.1
			c0.7,0.5,6.4,4.6,5.9,7.6c-0.7,4.2-6.4,6.5-18.4,7.4C48.3,59.8,47.2,59.8,46.2,59.8z M36.9,46.4c-1.6,1.4-4.2,4-4.5,5.5
			c-0.1,0.6,0.1,1.7,1.2,2.9c1.5,1.7,5.6,4.4,15.8,3.7c16.5-1.2,17.1-5,17.3-6.3c0.2-1.5-2.6-4.2-4.7-5.8c-2.1,5-7,8.3-12.5,8.3
			C43.9,54.6,39,51.4,36.9,46.4z"/>
		<circle class="st29" cx="63.4" cy="75.6" r="2.7"/>
		<circle class="st29" cx="33.1" cy="60.4" r="1.3"/>
		<circle class="st29" cx="54.7" cy="69.3" r="1.2"/>
		<circle class="st29" cx="43.8" cy="48.5" r="1.5"/>
		<circle class="st6" cx="31.8" cy="75.6" r="1.2"/>
		<circle class="st6" cx="63.4" cy="60.4" r="1.2"/>
		<circle class="st6" cx="41" cy="44.2" r="2.1"/>
		<circle class="st6" cx="50.8" cy="32.7" r="1.2"/>
	</g>
</g>
</svg>
